<svg version="1.1" xmlns="http://www.w3.org/2000/svg" viewBox="0 0 200.7726718123797 160.47303159942885" width="200.7726718123797" height="160.47303159942885">
  <!-- svg-source:excalidraw -->
  
  <defs>
    <style class="style-fonts">
      @font-face {
        font-family: "Virgil";
        src: url("https://excalidraw.com/Virgil.woff2");
      }
      @font-face {
        font-family: "Cascadia";
        src: url("https://excalidraw.com/Cascadia.woff2");
      }
    </style>
    
  </defs>
  <rect x="0" y="0" width="200.7726718123797" height="160.47303159942885" fill="#ffffff"></rect><g stroke-linecap="round" transform="translate(10 10) rotate(0 90.38633590618986 70.23651579971443)"><path d="M32 0 M32 0 C76.93 0.25, 125.56 1.24, 148.77 0 M32 0 C69.32 -0.79, 104.41 -0.42, 148.77 0 M148.77 0 C169.39 0.7, 180.98 10.87, 180.77 32 M148.77 0 C170.17 -1.12, 180.69 9.04, 180.77 32 M180.77 32 C181.98 48.9, 181.05 64.56, 180.77 108.47 M180.77 32 C180.69 59.63, 180.78 88.62, 180.77 108.47 M180.77 108.47 C179.11 128.26, 168.49 139.39, 148.77 140.47 M180.77 108.47 C180.11 128.35, 170.67 138.94, 148.77 140.47 M148.77 140.47 C112.47 140.35, 74.06 139.8, 32 140.47 M148.77 140.47 C115.82 140.1, 82.57 140.52, 32 140.47 M32 140.47 C9.87 139.02, -1.05 130.31, 0 108.47 M32 140.47 C12.49 138.68, -2.1 130.27, 0 108.47 M0 108.47 C0.87 78.22, 0.64 46.94, 0 32 M0 108.47 C0.64 84.31, 1.02 58.17, 0 32 M0 32 C0.47 11.32, 9.97 0.66, 32 0 M0 32 C-2.22 11.29, 8.41 -0.6, 32 0" stroke="#1971c2" stroke-width="2" fill="none"></path></g></svg>